<svg width="777" height="80" viewBox="0 0 777 80" fill="none" xmlns="http://www.w3.org/2000/svg">
<path d="M29.9144 61.0651H8.32184V46.7348H11.6395V15.5352H7.21595V26.4228H0V1.20495H38.1256V26.4228H30.9097V15.5352H26.5138V46.7348H29.9144V61.0651Z" fill="#EABD2C"/>
<path d="M62.7594 61.0651H41.5816V47.9398H45.0928V14.3303H41.5816V1.20495H58.9994V24.3572C62.7041 20.4841 66.3443 18.5476 69.9201 18.5476C73.0719 18.5476 75.5693 19.9677 77.4125 22.808C79.2556 25.6769 80.1772 30.7405 80.1772 37.9989V47.9398H83.329V61.0651H66.2706V43.9806C66.2706 38.7879 66.0771 35.5317 65.69 34.2119C65.2845 32.8922 64.4367 32.2324 63.1465 32.2324C61.801 32.2324 60.4186 32.964 58.9994 34.4271V47.9398H62.7594V61.0651Z" fill="#EABD2C"/>
<path d="M108.709 50.3927V42.7757C107.474 41.7429 106.166 41.2265 104.783 41.2265C103.567 41.2265 102.599 41.7429 101.88 42.7757C101.162 43.8372 100.802 45.1856 100.802 46.8209C100.802 48.5135 101.171 49.8906 101.908 50.9521C102.664 52.0423 103.53 52.5874 104.507 52.5874C106.239 52.5874 107.64 51.8558 108.709 50.3927ZM98.2862 30.9844L87.3932 29.263C88.5912 25.1605 90.5265 22.2772 93.1991 20.6132C95.8348 18.9493 99.7239 18.1173 104.866 18.1173C106.765 18.1173 108.46 18.2177 109.953 18.4185C111.465 18.5906 112.81 18.8632 113.99 19.2362C116.441 19.9534 118.257 21.0579 119.436 22.5498C120.616 24.0703 121.436 25.7056 121.897 27.4556C122.376 29.263 122.616 32.0746 122.616 35.8903V47.9398H126.044V61.0651H108.709V58.2249C106.313 60.6348 103.106 61.8397 99.088 61.8397C95.3095 61.8397 92.4618 60.5487 90.5449 57.9667C88.6096 55.3846 87.642 52.3292 87.642 48.8004C87.642 44.8987 88.8308 41.6998 91.2085 39.2039C93.5677 36.7079 96.6458 35.4599 100.443 35.4599C103.908 35.4599 106.663 36.1628 108.709 37.5686V36.3206C108.709 33.7386 108.589 31.9311 108.35 30.8983C108.092 29.8081 107.52 28.8757 106.636 28.1011C105.714 27.3552 104.645 26.9822 103.429 26.9822C101.198 26.9822 99.4843 28.3163 98.2862 30.9844Z" fill="#EABD2C"/>
<path d="M150.788 61.0651H129.555V47.9398H133.011V32.4476H129.555V19.3222H146.918V24.6154C150.328 20.5702 153.986 18.5476 157.894 18.5476C161.322 18.5476 163.902 20.0251 165.635 22.9801C167.349 25.9351 168.206 30.6832 168.206 37.2243V47.9398H171.386V61.0651H154.3V42.5175C154.3 38.4723 154.078 35.8042 153.636 34.5132C153.157 33.2509 152.245 32.6197 150.899 32.6197C149.664 32.6197 148.337 33.3513 146.918 34.8144V47.9398H150.788V61.0651Z" fill="#EABD2C"/>
<path d="M191.734 61.0651H174.399V47.9398H177.828V14.3303H174.344V1.20495H191.734V42.9048L200.471 29.6073H195.577V19.3222H212.718V30.6401H209.594L204.562 38.3002L210.617 47.9398H212.801V61.0651H202.821L191.734 42.9048V61.0651Z" fill="#EABD2C"/>
<path d="M226.874 61.5815H218.276V48.3271H226.321C228.385 51.7124 230.643 53.4051 233.094 53.4051C235.564 53.4051 236.799 52.6161 236.799 51.0382C236.799 50.2349 236.532 49.6181 235.997 49.1877C235.445 48.7287 233.979 48.0545 231.602 47.1651C229.685 46.3618 227.565 45.4294 225.243 44.3679C223.234 43.4786 221.648 42.3597 220.487 41.0113C219.289 39.6629 218.488 38.3432 218.082 37.0522C217.64 35.7612 217.418 34.0685 217.418 31.9742C217.418 27.3552 218.469 23.9555 220.57 21.7751C222.653 19.6235 225.298 18.5476 228.505 18.5476C231.823 18.5476 234.606 19.523 236.855 21.4739V19.3222H245.342V31.4578H237.49C235.537 28.5602 233.214 27.1114 230.523 27.1114C228.404 27.1114 227.344 27.9864 227.344 29.7364C227.344 30.5684 227.657 31.1135 228.284 31.3717C228.818 31.6299 230.588 32.2467 233.592 33.2222C237.002 34.341 239.665 35.4599 241.582 36.5788C243.481 37.6977 244.909 39.1752 245.868 41.0113C246.808 42.8474 247.278 45.0995 247.278 47.7676C247.278 52.5874 246.126 56.1449 243.822 58.44C241.536 60.7065 238.716 61.8397 235.362 61.8397C232.025 61.8397 229.196 60.893 226.874 58.9995V61.5815Z" fill="#EABD2C"/>
<path d="M287.643 61.0651H265.939V47.9398H269.34V32.4476H265.939V19.3222H269.34V18.3324C269.34 13.9717 269.939 10.4716 271.137 7.83217C272.317 5.25013 273.883 3.29926 275.837 1.97956C277.773 0.659853 280.961 0 285.403 0C287.394 0 289.357 0.0573785 291.292 0.172136V11.8343C289.983 11.6335 288.831 11.5331 287.836 11.5331C286.564 11.5331 285.578 11.7913 284.878 12.3077C284.159 12.8528 283.689 13.5844 283.468 14.5024C283.228 15.3631 283.108 16.9697 283.108 19.3222H288.251V32.4476H283.108V47.9398H287.643V61.0651Z" fill="#EABD2C"/>
<path d="M306.36 40.0646C306.36 46.7205 307.89 50.0484 310.949 50.0484C314.193 50.0484 315.815 46.6918 315.815 39.9785C315.815 36.9087 315.419 34.5275 314.626 32.8349C313.815 31.1422 312.673 30.2959 311.198 30.2959C309.742 30.2959 308.572 31.1278 307.687 32.7918C306.802 34.4558 306.36 36.88 306.36 40.0646ZM292.287 39.9785C292.287 33.839 293.946 28.6606 297.264 24.4433C300.582 20.2259 305.06 18.1173 310.701 18.1173C316.377 18.1173 320.995 20.1542 324.552 24.2281C328.109 28.302 329.888 33.6095 329.888 40.1506C329.888 46.4623 328.192 51.7267 324.801 55.9441C321.409 60.1614 316.93 62.27 311.364 62.27C305.355 62.27 300.674 60.1614 297.319 55.9441C293.965 51.7554 292.287 46.4336 292.287 39.9785Z" fill="#EABD2C"/>
<path d="M355.766 61.0651H334.145V47.9398H337.795V32.4476H334.145V19.3222H350.789V29.7795C351.416 27.1687 352.383 24.9166 353.692 23.0231C354.945 21.1583 356.217 19.939 357.507 19.3653C358.742 18.8202 360.558 18.5476 362.954 18.5476V36.9231C362.641 36.8944 362.254 36.88 361.793 36.88C358.954 36.88 356.844 37.3247 355.462 38.2141C354.024 39.1322 353.047 40.3371 352.531 41.8289C351.996 43.3782 351.72 45.4151 351.701 47.9398H355.766V61.0651Z" fill="#EABD2C"/>
<path d="M397.651 14.3303V25.7343H399.31C401.485 25.7343 402.96 25.6339 403.734 25.433C404.563 25.2322 405.264 24.6584 405.835 23.7117C406.406 22.8223 406.692 21.603 406.692 20.0538C406.692 18.5046 406.406 17.2709 405.835 16.3529C405.264 15.4061 404.535 14.8323 403.651 14.6315C402.803 14.4307 401.255 14.3303 399.006 14.3303H397.651ZM400.554 61.0651H379.653V46.7348H382.777V15.5352H379.653V1.20495H400.554C402.434 1.20495 404.176 1.26233 405.78 1.37708C407.383 1.46315 408.756 1.6066 409.899 1.80742C411.042 1.97956 412.092 2.22342 413.051 2.539C415.742 3.42837 417.926 5.36489 419.603 8.34857C421.299 11.3896 422.147 14.9758 422.147 19.107C422.147 22.2055 421.631 25.017 420.599 27.5417C419.566 30.0377 418.212 31.8738 416.534 33.05L421.843 46.7348H424.607V61.0651H410.756L402.379 36.6218H397.651V46.7348H400.554V61.0651Z" fill="#EABD2C"/>
<path d="M441.638 36.9231H449.462C449.499 36.0624 449.518 35.5747 449.518 35.4599C449.518 33.1935 449.149 31.3143 448.412 29.8225C447.674 28.3593 446.698 27.6278 445.481 27.6278C444.228 27.6278 443.269 28.4311 442.606 30.0377C441.942 31.6729 441.611 33.6812 441.611 36.0624C441.611 36.378 441.62 36.6649 441.638 36.9231ZM450.485 47.8537L461.959 50.0484C461.443 51.9132 460.724 53.5915 459.802 55.0834C458.881 56.5465 457.757 57.8232 456.429 58.9134C453.757 61.1512 450.559 62.27 446.836 62.27C440.588 62.27 435.888 60.2474 432.736 56.2023C429.584 52.1858 428.008 46.9213 428.008 40.4088C428.008 34.0398 429.566 28.7323 432.68 24.4863C435.759 20.2403 439.933 18.1173 445.205 18.1173C450.273 18.1173 454.402 20.1255 457.591 24.142C460.724 28.1298 462.392 34.1976 462.595 42.3453H441.472C441.528 49.116 443.15 52.5013 446.338 52.5013C448.255 52.5013 449.637 50.9521 450.485 47.8537Z" fill="#EABD2C"/>
<path d="M481.589 40.4519C481.589 43.0052 482.003 45.1282 482.833 46.8209C483.662 48.5422 484.842 49.4029 486.372 49.4029C487.993 49.4029 489.201 48.5279 489.993 46.7778C490.786 45.0852 491.182 42.9478 491.182 40.3658C491.182 37.5542 490.758 35.2734 489.91 33.5234C489.044 31.7447 487.883 30.8553 486.427 30.8553C484.86 30.8553 483.662 31.7877 482.833 33.6525C482.003 35.4886 481.589 37.7551 481.589 40.4519ZM469.838 76.5143L473.654 65.9279C475.81 67.3337 478.704 68.0366 482.335 68.0366C484.731 68.0366 486.602 67.5058 487.947 66.4443C489.311 65.4115 490.187 64.1922 490.574 62.7864C490.943 61.3807 491.127 59.3868 491.127 56.8047C488.344 58.9851 485.238 60.0753 481.81 60.0753C477.81 60.0753 474.437 58.2966 471.691 54.7391C468.908 51.2103 467.516 46.3188 467.516 40.0646C467.516 33.466 468.963 28.2302 471.857 24.3572C474.732 20.4841 478.216 18.5476 482.307 18.5476C485.662 18.5476 488.602 19.6952 491.127 21.9903V19.3222H508.323V32.4476H504.978V55.3416C504.978 60.4483 504.683 64.3787 504.093 67.1329C503.485 69.887 502.398 72.2396 500.831 74.1904C499.264 76.2274 497.301 77.6905 494.942 78.5799C492.601 79.5266 489.496 80 485.625 80C483.892 80 482.344 79.9139 480.98 79.7418C479.635 79.5697 478.087 79.2828 476.336 78.8811C473.35 78.1352 471.184 77.3463 469.838 76.5143Z" fill="#EABD2C"/>
<path d="M530.911 61.0651H511.918V47.9398H514.682V32.4476H511.918V19.3222H528.589V47.9398H530.911V61.0651ZM513.521 7.53093C513.521 5.26448 514.268 3.44271 515.761 2.06563C517.235 0.688542 519.06 0 521.235 0C523.465 0 525.262 0.717232 526.626 2.15169C527.971 3.61485 528.644 5.39358 528.644 7.4879C528.644 9.75435 527.944 11.5474 526.543 12.8671C525.124 14.2155 523.336 14.8897 521.18 14.8897C518.986 14.8897 517.161 14.2729 515.705 13.0393C514.249 11.8343 513.521 9.99821 513.521 7.53093Z" fill="#EABD2C"/>
<path d="M544.873 61.5815H536.275V48.3271H544.32C546.385 51.7124 548.642 53.4051 551.094 53.4051C553.564 53.4051 554.799 52.6161 554.799 51.0382C554.799 50.2349 554.531 49.6181 553.997 49.1877C553.444 48.7287 551.979 48.0545 549.601 47.1651C547.684 46.3618 545.564 45.4294 543.242 44.3679C541.233 43.4786 539.648 42.3597 538.487 41.0113C537.289 39.6629 536.487 38.3432 536.081 37.0522C535.639 35.7612 535.418 34.0685 535.418 31.9742C535.418 27.3552 536.468 23.9555 538.57 21.7751C540.652 19.6235 543.297 18.5476 546.504 18.5476C549.822 18.5476 552.605 19.523 554.854 21.4739V19.3222H563.342V31.4578H555.49C553.536 28.5602 551.214 27.1114 548.523 27.1114C546.403 27.1114 545.343 27.9864 545.343 29.7364C545.343 30.5684 545.657 31.1135 546.283 31.3717C546.818 31.6299 548.587 32.2467 551.592 33.2222C555.001 34.341 557.665 35.4599 559.582 36.5788C561.48 37.6977 562.909 39.1752 563.867 41.0113C564.807 42.8474 565.277 45.0995 565.277 47.7676C565.277 52.5874 564.125 56.1449 561.821 58.44C559.535 60.7065 556.715 61.8397 553.361 61.8397C550.025 61.8397 547.196 60.893 544.873 58.9995V61.5815Z" fill="#EABD2C"/>
<path d="M591.597 45.8311V58.6552C590.694 59.6019 589.385 60.4339 587.671 61.1512C585.865 61.8971 584.132 62.27 582.474 62.27C580.391 62.27 578.603 61.7393 577.11 60.6778C575.58 59.5876 574.428 58.1244 573.654 56.2883C573.23 55.2268 572.917 54.2657 572.714 53.4051C572.511 52.5157 572.364 51.5259 572.272 50.4357C572.143 48.5422 572.078 44.8843 572.078 39.4621V32.4476H568.65V19.3222H572.078V12.9102L585.985 2.62507V19.3222H591.597V32.4476H585.985V40.5379C585.985 43.1773 586.141 44.9417 586.455 45.8311C586.75 46.7205 587.376 47.1651 588.335 47.1651C589.238 47.1651 590.325 46.7205 591.597 45.8311Z" fill="#EABD2C"/>
<path d="M609.789 36.9231H617.613C617.65 36.0624 617.669 35.5747 617.669 35.4599C617.669 33.1935 617.3 31.3143 616.563 29.8225C615.826 28.3593 614.849 27.6278 613.632 27.6278C612.379 27.6278 611.42 28.4311 610.757 30.0377C610.093 31.6729 609.761 33.6812 609.761 36.0624C609.761 36.378 609.771 36.6649 609.789 36.9231ZM618.636 47.8537L630.11 50.0484C629.594 51.9132 628.875 53.5915 627.953 55.0834C627.032 56.5465 625.908 57.8232 624.581 58.9134C621.908 61.1512 618.71 62.27 614.987 62.27C608.739 62.27 604.038 60.2474 600.887 56.2023C597.735 52.1858 596.159 46.9213 596.159 40.4088C596.159 34.0398 597.716 28.7323 600.831 24.4863C603.909 20.2403 608.084 18.1173 613.356 18.1173C618.424 18.1173 622.553 20.1255 625.742 24.142C628.875 28.1298 630.543 34.1976 630.746 42.3453H609.623C609.679 49.116 611.301 52.5013 614.489 52.5013C616.406 52.5013 617.788 50.9521 618.636 47.8537Z" fill="#EABD2C"/>
<path d="M656.679 61.0651H635.059V47.9398H638.708V32.4476H635.059V19.3222H651.702V29.7795C652.329 27.1687 653.297 24.9166 654.605 23.0231C655.859 21.1583 657.131 19.939 658.421 19.3653C659.656 18.8202 661.471 18.5476 663.867 18.5476V36.9231C663.554 36.8944 663.167 36.88 662.706 36.88C659.868 36.88 657.757 37.3247 656.375 38.2141C654.937 39.1322 653.96 40.3371 653.444 41.8289C652.91 43.3782 652.633 45.4151 652.615 47.9398H656.679V61.0651Z" fill="#EABD2C"/>
<path d="M686.345 61.0651H667.351V47.9398H670.116V32.4476H667.351V19.3222H684.022V47.9398H686.345V61.0651ZM668.954 7.53093C668.954 5.26448 669.701 3.44271 671.194 2.06563C672.668 0.688542 674.493 0 676.668 0C678.898 0 680.695 0.717232 682.059 2.15169C683.405 3.61485 684.077 5.39358 684.077 7.4879C684.077 9.75435 683.377 11.5474 681.976 12.8671C680.557 14.2155 678.769 14.8897 676.613 14.8897C674.419 14.8897 672.595 14.2729 671.138 13.0393C669.682 11.8343 668.954 9.99821 668.954 7.53093Z" fill="#EABD2C"/>
<path d="M711.531 61.0651H690.298V47.9398H693.754V32.4476H690.298V19.3222H707.661V24.6154C711.07 20.5702 714.729 18.5476 718.637 18.5476C722.065 18.5476 724.645 20.0251 726.378 22.9801C728.092 25.9351 728.949 30.6832 728.949 37.2243V47.9398H732.129V61.0651H715.042V42.5175C715.042 38.4723 714.821 35.8042 714.379 34.5132C713.9 33.2509 712.987 32.6197 711.642 32.6197C710.407 32.6197 709.08 33.3513 707.661 34.8144V47.9398H711.531V61.0651Z" fill="#EABD2C"/>
<path d="M750.265 40.4519C750.265 43.0052 750.68 45.1282 751.509 46.8209C752.339 48.5422 753.518 49.4029 755.048 49.4029C756.67 49.4029 757.877 48.5279 758.67 46.7778C759.462 45.0852 759.859 42.9478 759.859 40.3658C759.859 37.5542 759.435 35.2734 758.587 33.5234C757.721 31.7447 756.559 30.8553 755.103 30.8553C753.537 30.8553 752.339 31.7877 751.509 33.6525C750.68 35.4886 750.265 37.7551 750.265 40.4519ZM738.515 76.5143L742.33 65.9279C744.487 67.3337 747.381 68.0366 751.012 68.0366C753.408 68.0366 755.279 67.5058 756.624 66.4443C757.988 65.4115 758.863 64.1922 759.25 62.7864C759.619 61.3807 759.803 59.3868 759.803 56.8047C757.02 58.9851 753.915 60.0753 750.486 60.0753C746.487 60.0753 743.114 58.2966 740.367 54.7391C737.584 51.2103 736.193 46.3188 736.193 40.0646C736.193 33.466 737.639 28.2302 740.533 24.3572C743.409 20.4841 746.892 18.5476 750.984 18.5476C754.339 18.5476 757.278 19.6952 759.803 21.9903V19.3222H777V32.4476H773.655V55.3416C773.655 60.4483 773.36 64.3787 772.77 67.1329C772.162 69.887 771.074 72.2396 769.508 74.1904C767.941 76.2274 765.978 77.6905 763.619 78.5799C761.278 79.5266 758.172 80 754.302 80C752.569 80 751.021 79.9139 749.657 79.7418C748.311 79.5697 746.763 79.2828 745.012 78.8811C742.026 78.1352 739.861 77.3463 738.515 76.5143Z" fill="#EABD2C"/>
</svg>
