<svg width="44" height="45" viewBox="0 0 44 45" fill="none" xmlns="http://www.w3.org/2000/svg">
<path d="M23.0153 0.0533237C22.901 0.0796947 22.6373 0.255499 22.4263 0.457672C21.978 0.897182 21.8198 1.37185 21.8725 2.12781C21.9429 3.08595 22.4527 3.43755 24.0525 3.63094C27.4104 4.05287 30.6979 5.0989 32.8427 6.43501C36.2357 8.55345 38.3454 11.6476 39.4881 16.1658C39.8573 17.6425 40.121 19.2072 40.2177 20.4993C40.3232 21.9321 40.5869 22.4508 41.3428 22.7233C42.134 23.0046 43.0745 22.7848 43.5052 22.2222C43.8832 21.7124 43.9447 21.141 43.8393 19.049C43.725 16.8602 43.5052 15.612 42.8987 13.7924C40.2353 5.79333 32.412 -0.0697403 24.492 0.000581741C23.7888 0.00937271 23.1295 0.0357437 23.0153 0.0533237Z" fill="black"/>
<path d="M6.60389 2.35632C3.58006 3.16502 1.19791 5.21314 0.38042 7.72714C-0.138203 9.31817 -0.129412 10.9795 0.424371 12.8694C0.82872 14.2583 2.45491 17.7743 3.86134 20.2883C9.66288 30.7135 18.2421 38.4841 29.81 43.7846C32.3065 44.9361 33.5986 45.1998 35.0402 44.8658C36.7191 44.4702 38.2926 43.5736 39.7254 42.1935C40.9384 41.0244 41.6856 39.9696 42.1603 38.7302C42.9162 36.7964 42.6262 35.2669 41.2461 33.878C40.1034 32.7265 35.3567 29.2368 33.9414 28.4984C32.913 27.971 32.1482 27.7512 31.2604 27.7512C29.5727 27.7336 28.3245 28.472 27.0147 30.2564C26.2061 31.3464 25.4677 31.698 24.4392 31.4695C24.1755 31.408 23.4811 31.1179 22.8834 30.8278C20.7473 29.773 19.1211 28.6303 17.5565 27.0832C15.983 25.5185 15.0161 24.1648 14.0668 22.187C13.4602 20.9212 13.3284 20.4729 13.3284 19.6906C13.3284 18.7061 13.7591 18.0644 15.0864 17.0975C16.4401 16.1042 17.0554 15.19 17.1873 14.0121C17.2312 13.6517 17.2312 13.1771 17.1873 12.9573C16.8269 11.0498 14.0668 6.81296 11.4825 4.20227C10.3046 3.01559 9.76836 2.62003 9.06515 2.40028C8.36193 2.18052 7.32468 2.16294 6.60389 2.35632Z" fill="black"/>
<path d="M23.569 5.87249C22.8833 6.18015 22.5581 6.77789 22.5581 7.72723C22.5581 8.71173 23.1822 9.2743 24.5095 9.48527C25.5819 9.65228 27.4543 10.1709 28.4651 10.5753C31.1637 11.6652 32.6229 13.2123 33.5459 15.9812C33.8799 16.9745 34.2139 18.5568 34.3282 19.6819C34.4688 20.9917 34.8556 21.5366 35.761 21.7037C36.3324 21.8091 37.1059 21.607 37.4575 21.2641C37.8794 20.8598 37.941 20.5609 37.941 19.0226C37.941 16.8954 37.5718 15.2516 36.7103 13.5112C35.3918 10.8741 32.9218 8.43044 30.3023 7.19103C28.8167 6.47902 27.841 6.18894 25.9863 5.88128C24.6326 5.66153 24.0261 5.66153 23.569 5.87249Z" fill="black"/>
<path d="M24.9316 11.6826C23.9559 11.8057 23.367 12.377 23.2088 13.3352C23.033 14.4515 23.6307 15.0405 25.2833 15.3745C25.5997 15.436 26.092 15.5943 26.382 15.7261C27.7006 16.3239 28.3159 17.2205 28.6235 18.9785C28.7642 19.8136 28.8697 20.1036 29.1773 20.4377C29.5553 20.8772 29.8981 21.0266 30.5134 21.0266C31.1375 21.0266 31.4891 20.8684 31.8583 20.4201C32.1924 20.0157 32.3154 19.5323 32.3154 18.6005C32.3154 16.2711 30.698 13.7483 28.3422 12.4034C27.3314 11.8233 25.9953 11.542 24.9316 11.6826Z" fill="black"/>
</svg>
