<svg width="239" height="202" viewBox="0 0 239 202" fill="none" xmlns="http://www.w3.org/2000/svg">
<circle cx="118.776" cy="74.3776" r="74.3776" fill="#EABD2C"/>
<path d="M114.564 17.4253C111.544 15.4936 108.215 13.8709 107.208 13.9482C106.279 13.9482 104.266 14.7209 102.794 15.6481C101.323 16.4981 93.8123 21.9842 86.1465 27.7021C78.4807 33.4973 70.9698 39.447 69.4212 40.9151C67.8726 42.3832 66.1691 45.0103 65.627 46.7103C64.9302 49.0283 64.9302 50.651 65.5496 53.1236C66.0142 54.9008 67.408 57.5279 68.6469 58.9188C69.8084 60.2323 75.2286 64.4049 80.6488 68.191C85.9916 71.8999 90.8698 74.7589 91.3344 74.6044C91.8765 74.4498 101.013 67.882 111.699 60.0778C122.307 52.1964 132.296 45.1649 133.767 44.3922C135.238 43.6195 139.033 42.7695 142.207 42.5377L147.937 42.0741C126.411 25.7704 117.661 19.4343 114.564 17.4253Z" fill="black"/>
<path d="M156.842 72.5954C148.169 65.4094 140.813 59.5369 140.349 59.5369C139.884 59.5369 132.528 65.6412 123.856 73.059L108.215 86.5038C117.042 92.1444 119.52 94.3852 120.294 96.0079C121.301 97.9396 121.61 101.03 121.688 110.071C121.765 120.502 121.61 122.048 120.062 125.138C119.132 127.07 117.119 129.774 115.648 131.165C113.79 132.788 113.17 133.792 113.79 134.101C114.332 134.333 122.849 134.411 132.761 134.256C149.563 134.024 150.802 133.947 152.893 132.402C154.054 131.474 155.758 129.62 156.61 128.152C157.926 125.834 158.236 123.67 158.545 111.462C158.932 98.7896 159.087 97.2442 160.559 95.2352C161.41 94.0761 164.275 91.6808 166.831 89.9809C169.463 88.281 171.786 86.6583 172.018 86.3492C172.251 85.9629 165.437 79.8587 156.842 72.5954Z" fill="black"/>
<path d="M88.8566 77.077C81.4232 72.209 73.1379 66.4139 70.5053 64.1731C66.4788 60.7732 65.627 60.3869 65.085 61.4686C64.7753 62.1641 64.7753 72.6726 65.085 84.8811C65.627 103.735 65.9368 107.366 67.0982 109.684C68.1823 111.848 71.5893 114.398 84.6753 122.588C93.58 128.152 101.71 132.942 102.794 133.174C103.878 133.406 106.047 133.252 107.595 132.865C109.221 132.402 111.776 130.933 113.403 129.62C114.951 128.229 116.81 125.679 117.584 123.979C118.745 121.507 119.055 118.879 119.055 110.303C119.055 104.43 118.668 98.7896 118.281 97.7078C117.816 96.5488 114.564 93.8443 109.996 90.9081C105.814 88.2037 96.2901 82.0222 88.8566 77.077Z" fill="black"/>
<path d="M22.2688 179.656V189.664C21.8757 190.138 21.2687 190.652 20.4478 191.207C19.6268 191.751 18.5689 192.219 17.2739 192.612C15.979 193.005 14.4123 193.202 12.5739 193.202C10.9436 193.202 9.45789 192.936 8.11667 192.404C6.77545 191.86 5.61923 191.068 4.64801 190.028C3.68834 188.987 2.94836 187.715 2.42806 186.212C1.90776 184.698 1.64761 182.969 1.64761 181.027V179.448C1.64761 177.506 1.8962 175.777 2.39338 174.263C2.90211 172.748 3.62475 171.47 4.56129 170.43C5.49783 169.389 6.61358 168.597 7.90855 168.054C9.20352 167.51 10.643 167.239 12.227 167.239C14.4239 167.239 16.2276 167.597 17.6381 168.314C19.0487 169.019 20.124 170.002 20.864 171.262C21.6155 172.511 22.078 173.945 22.2515 175.563H17.2046C17.0774 174.708 16.8346 173.962 16.4761 173.326C16.1177 172.69 15.6032 172.193 14.9326 171.835C14.2735 171.476 13.4179 171.297 12.3658 171.297C11.4986 171.297 10.7239 171.476 10.0418 171.835C9.37117 172.182 8.80462 172.696 8.34213 173.378C7.87964 174.06 7.527 174.904 7.28419 175.91C7.04138 176.916 6.91998 178.084 6.91998 179.414V181.027C6.91998 182.345 7.04717 183.512 7.30153 184.53C7.5559 185.536 7.93167 186.386 8.42885 187.079C8.93759 187.762 9.56195 188.276 10.3019 188.623C11.0419 188.97 11.9033 189.143 12.8861 189.143C13.707 189.143 14.3892 189.074 14.9326 188.935C15.4876 188.796 15.9327 188.629 16.268 188.432C16.6149 188.224 16.8808 188.028 17.0658 187.843V183.368H12.3138V179.656H22.2688ZM36.7331 171.921L29.8652 192.855H24.3327L33.7154 167.603H37.2361L36.7331 171.921ZM42.4391 192.855L35.5538 171.921L34.9988 167.603H38.5542L47.9889 192.855H42.4391ZM42.1269 183.455V187.53H28.7899V183.455H42.1269ZM50.3303 167.603H59.7477C61.6786 167.603 63.3378 167.892 64.7252 168.47C66.1243 169.048 67.1995 169.904 67.9511 171.037C68.7026 172.17 69.0784 173.563 69.0784 175.217C69.0784 176.569 68.8472 177.731 68.3847 178.703C67.9337 179.662 67.292 180.466 66.4596 181.113C65.6386 181.749 64.6732 182.258 63.5632 182.64L61.9156 183.507H53.7296L53.6949 179.448H59.7824C60.6958 179.448 61.4531 179.286 62.0544 178.963C62.6556 178.639 63.1065 178.188 63.4071 177.61C63.7193 177.032 63.8754 176.361 63.8754 175.598C63.8754 174.789 63.7251 174.089 63.4245 173.5C63.1239 172.91 62.6672 172.459 62.0544 172.147C61.4416 171.835 60.6727 171.679 59.7477 171.679H55.5333V192.855H50.3303V167.603ZM64.4477 192.855L58.6898 181.599L64.1876 181.564L70.0149 192.612V192.855H64.4477ZM82.9704 181.772H76.484L76.4493 178.2H81.8951C82.8548 178.2 83.641 178.078 84.2538 177.835C84.8666 177.581 85.3233 177.217 85.6239 176.743C85.9361 176.257 86.0922 175.668 86.0922 174.974C86.0922 174.188 85.9419 173.552 85.6413 173.066C85.3522 172.58 84.8955 172.228 84.2711 172.008C83.6583 171.788 82.8663 171.679 81.8951 171.679H78.2877V192.855H73.0847V167.603H81.8951C83.3635 167.603 84.6758 167.742 85.832 168.019C86.9998 168.297 87.9884 168.719 88.7977 169.285C89.6071 169.852 90.2257 170.569 90.6535 171.436C91.0813 172.291 91.2952 173.309 91.2952 174.488C91.2952 175.529 91.0582 176.488 90.5841 177.367C90.1216 178.246 89.3874 178.963 88.3815 179.518C87.3872 180.073 86.0864 180.379 84.4793 180.437L82.9704 181.772ZM82.7449 192.855H75.0618L77.091 188.796H82.7449C83.6583 188.796 84.4041 188.652 84.9822 188.363C85.5603 188.062 85.9881 187.658 86.2656 187.149C86.5431 186.64 86.6819 186.056 86.6819 185.397C86.6819 184.657 86.5547 184.015 86.3003 183.472C86.0575 182.929 85.6644 182.512 85.121 182.223C84.5775 181.923 83.8607 181.772 82.9704 181.772H77.9582L77.9929 178.2H84.2365L85.4331 179.604C86.9709 179.581 88.2081 179.853 89.1446 180.42C90.0927 180.975 90.7807 181.697 91.2085 182.587C91.6478 183.478 91.8675 184.432 91.8675 185.449C91.8675 187.068 91.5149 188.432 90.8096 189.542C90.1043 190.641 89.0695 191.467 87.7051 192.022C86.3523 192.577 84.6989 192.855 82.7449 192.855ZM106.037 171.921L99.169 192.855H93.6365L103.019 167.603H106.54L106.037 171.921ZM111.743 192.855L104.858 171.921L104.303 167.603H107.858L117.293 192.855H111.743ZM111.431 183.455V187.53H98.0938V183.455H111.431ZM139.336 179.656V189.664C138.943 190.138 138.336 190.652 137.515 191.207C136.694 191.751 135.636 192.219 134.341 192.612C133.046 193.005 131.48 193.202 129.641 193.202C128.011 193.202 126.525 192.936 125.184 192.404C123.843 191.86 122.687 191.068 121.715 190.028C120.756 188.987 120.016 187.715 119.495 186.212C118.975 184.698 118.715 182.969 118.715 181.027V179.448C118.715 177.506 118.964 175.777 119.461 174.263C119.969 172.748 120.692 171.47 121.629 170.43C122.565 169.389 123.681 168.597 124.976 168.054C126.271 167.51 127.71 167.239 129.294 167.239C131.491 167.239 133.295 167.597 134.705 168.314C136.116 169.019 137.191 170.002 137.931 171.262C138.683 172.511 139.145 173.945 139.319 175.563H134.272C134.145 174.708 133.902 173.962 133.543 173.326C133.185 172.69 132.671 172.193 132 171.835C131.341 171.476 130.485 171.297 129.433 171.297C128.566 171.297 127.791 171.476 127.109 171.835C126.439 172.182 125.872 172.696 125.409 173.378C124.947 174.06 124.594 174.904 124.352 175.91C124.109 176.916 123.987 178.084 123.987 179.414V181.027C123.987 182.345 124.115 183.512 124.369 184.53C124.623 185.536 124.999 186.386 125.496 187.079C126.005 187.762 126.629 188.276 127.369 188.623C128.109 188.97 128.971 189.143 129.953 189.143C130.774 189.143 131.457 189.074 132 188.935C132.555 188.796 133 188.629 133.335 188.432C133.682 188.224 133.948 188.028 134.133 187.843V183.368H129.381V179.656H139.336ZM160.478 188.796V192.855H147.037V188.796H160.478ZM148.736 167.603V192.855H143.533V167.603H148.736ZM158.726 177.887V181.842H147.037V177.887H158.726ZM160.46 167.603V171.679H147.037V167.603H160.46ZM165.056 167.603H166.53L176.52 190.843L186.51 167.603H187.984L177.058 192.855H175.965L165.056 167.603ZM164.623 167.603H165.941L166.028 181.113V192.855H164.623V167.603ZM187.134 167.603H188.452V192.855H187.048V181.113L187.134 167.603ZM203.16 168.678L194.176 192.855H192.684L202.171 167.603H203.333L203.16 168.678ZM211.658 192.855L202.691 168.678L202.518 167.603H203.662L213.167 192.855H211.658ZM209.438 184.2V185.501H196.482V184.2H209.438ZM235.54 167.603V192.855H234.135L218.526 170.014V192.855H217.104V167.603H218.526L234.135 190.409V167.603H235.54Z" fill="black"/>
</svg>
